<?xml version="1.0" standalone="no"?>
<!DOCTYPE svg PUBLIC "-//W3C//DTD SVG 20010904//EN"
 "http://www.w3.org/TR/2001/REC-SVG-20010904/DTD/svg10.dtd">
<svg version="1.0" xmlns="http://www.w3.org/2000/svg"
 width="518.000000pt" height="518.000000pt" viewBox="0 0 518.000000 518.000000"
 preserveAspectRatio="xMidYMid meet">

<g transform="translate(0.000000,518.000000) scale(0.100000,-0.100000)"
fill="#000000" stroke="none">
<path d="M2435 5164 c-189 -19 -256 -28 -360 -50 -394 -80 -783 -263 -1105
-520 -109 -87 -297 -275 -384 -384 -274 -343 -465 -765 -536 -1185 -111 -649
27 -1309 388 -1857 363 -549 926 -942 1567 -1093 219 -51 303 -60 585 -60 205
0 290 4 375 18 444 71 826 231 1171 489 544 405 904 1007 1009 1688 22 142 31
478 16 620 -35 332 -111 600 -256 895 -373 761 -1100 1291 -1941 1415 -132 19
-439 33 -529 24z m502 -459 c425 -69 806 -257 1131 -560 749 -699 886 -1874
320 -2731 -90 -136 -159 -224 -175 -221 -6 1 -130 133 -275 292 -145 160 -633
695 -1083 1190 -451 495 -973 1068 -1160 1273 -187 206 -341 378 -343 383 -9
22 280 184 446 250 357 142 756 186 1139 124z m-1841 -848 c211 -232 1650
-1812 2201 -2418 293 -321 533 -588 535 -594 3 -12 -95 -78 -209 -141 -513
-282 -1148 -340 -1703 -155 -325 109 -592 273 -836 516 -191 190 -309 352
-419 580 -149 306 -215 594 -215 941 0 488 141 909 433 1297 44 59 83 107 86
107 3 0 60 -60 127 -133z"/>
<path d="M3749 4083 c-21 -48 -48 -156 -94 -385 -36 -175 -65 -324 -65 -331 0
-7 -14 -20 -32 -28 -49 -22 -67 -56 -102 -195 l-33 -129 -28 2 c-33 3 -45 -10
-45 -48 0 -21 6 -28 30 -32 55 -11 36 -34 -37 -43 l-67 -9 -37 -180 c-21 -99
-38 -189 -38 -200 -1 -12 12 -36 27 -54 l28 -34 42 209 c24 114 44 210 46 211
8 8 106 -20 106 -30 0 -7 -22 -120 -49 -252 l-49 -240 76 -84 c43 -46 98 -107
124 -135 34 -37 48 -47 52 -36 6 18 135 648 143 701 5 36 5 36 -51 59 -41 16
-56 27 -54 39 3 11 13 15 35 14 27 -2 31 1 37 28 9 46 9 46 -24 53 -25 5 -30
9 -26 28 20 91 37 242 32 271 -4 19 -16 47 -27 62 l-21 26 63 307 c38 188 65
345 68 405 3 53 5 97 3 97 -2 0 -16 -30 -33 -67z"/>
<path d="M1963 4059 c-40 -20 -103 -80 -103 -98 0 -5 7 -14 15 -21 11 -9 20
-5 45 23 56 64 84 71 280 71 l175 1 3 -97 3 -98 -29 0 c-80 0 -172 -63 -208
-141 l-17 -40 35 -37 c19 -20 102 -111 185 -202 l150 -165 159 -89 c146 -82
164 -89 225 -94 52 -3 76 0 117 18 94 40 159 142 149 231 -11 95 -75 162 -240
253 l-107 60 44 42 c52 49 70 97 70 179 -1 72 -19 110 -75 158 -75 65 -92 67
-483 67 -336 0 -353 -1 -393 -21z m901 -516 c175 -98 236 -161 236 -245 0 -43
-35 -103 -83 -142 -32 -26 -48 -31 -106 -34 l-68 -4 -139 78 c-76 42 -145 83
-153 89 -11 11 2 40 74 169 53 94 93 156 103 156 8 0 69 -30 136 -67z"/>
<path d="M946 3043 c4 -16 13 -46 22 -68 8 -22 16 -62 18 -90 1 -27 5 -66 9
-85 3 -19 5 -43 6 -54 0 -10 7 -28 15 -40 8 -13 11 -25 8 -29 -4 -4 1 -18 10
-31 9 -15 12 -27 6 -31 -16 -10 -12 -24 14 -46 14 -12 22 -28 19 -36 -3 -8 4
-23 16 -34 15 -14 20 -27 15 -41 -4 -13 1 -26 14 -38 12 -12 18 -27 15 -39 -3
-13 4 -26 25 -41 19 -15 28 -28 25 -40 -3 -12 4 -24 24 -36 15 -10 30 -20 33
-22 2 -1 -2 -7 -9 -12 -11 -6 -8 -12 15 -27 17 -10 28 -25 26 -34 -2 -9 11
-23 32 -34 19 -10 32 -24 29 -31 -2 -6 12 -24 31 -39 20 -15 34 -31 31 -35 -3
-4 11 -20 30 -34 19 -15 35 -33 35 -40 0 -7 10 -17 22 -23 15 -6 18 -12 10
-17 -12 -7 -54 28 -65 55 -5 12 -7 12 -16 -1 -9 -13 -12 -12 -25 5 -45 62 -45
62 -46 35 0 -24 -2 -23 -34 15 -28 32 -37 38 -47 27 -11 -10 -17 -7 -34 13
-11 15 -27 27 -35 28 -8 1 -26 10 -40 20 -16 11 -26 13 -28 7 -3 -7 -12 -4
-23 6 -11 10 -27 18 -37 19 -10 0 -29 9 -42 18 -15 10 -26 13 -28 7 -2 -6 -15
-1 -30 10 -19 15 -27 17 -33 8 -6 -9 -11 -9 -22 0 -8 7 -22 10 -31 6 -9 -3
-23 -1 -31 6 -8 6 -18 9 -23 6 -5 -3 -40 8 -78 24 -103 44 -120 38 -42 -15 62
-42 108 -90 108 -114 0 -6 7 -11 15 -11 8 0 19 -9 25 -19 5 -11 19 -23 30 -26
11 -4 18 -11 14 -16 -3 -5 7 -15 23 -22 15 -6 28 -19 28 -27 0 -8 10 -16 23
-18 12 -2 22 -10 22 -18 0 -8 13 -17 30 -21 20 -4 29 -11 28 -21 -2 -11 9 -19
35 -27 21 -6 35 -14 30 -18 -10 -11 16 -27 43 -27 13 0 24 -8 27 -20 3 -14 14
-20 32 -20 14 0 33 -7 41 -15 9 -8 28 -15 44 -15 16 0 31 -4 34 -9 3 -5 30
-12 61 -16 48 -6 53 -8 44 -23 -7 -11 -25 -17 -52 -18 -73 -1 -134 -14 -158
-34 -12 -11 -29 -20 -37 -20 -8 0 -25 -11 -38 -25 -13 -14 -30 -25 -38 -25 -8
0 -20 -9 -26 -20 -6 -11 -17 -20 -25 -20 -8 0 -15 -4 -15 -9 0 -4 -27 -29 -60
-55 -68 -53 -71 -74 -7 -47 49 22 120 34 112 20 -8 -11 0 -11 50 2 22 6 63 12
90 14 28 1 50 4 50 5 0 2 33 10 62 15 12 2 28 7 35 11 7 4 19 9 28 11 65 11
121 27 150 44 8 5 22 12 30 15 8 3 41 17 73 30 70 29 69 17 -2 -16 -28 -13
-51 -29 -51 -35 0 -11 -20 -22 -73 -39 -10 -3 -15 -10 -12 -16 3 -5 1 -10 -5
-10 -14 0 -85 -77 -86 -94 0 -6 -6 -24 -13 -41 -7 -16 -15 -46 -18 -65 l-6
-35 34 41 c21 26 49 47 74 55 22 7 55 21 73 31 17 10 32 15 32 11 0 -3 9 2 20
12 11 10 20 14 20 9 0 -5 16 9 35 30 19 22 35 43 35 48 0 15 21 8 26 -9 16
-51 27 -72 38 -76 8 -3 11 6 8 28 -2 18 1 42 7 52 9 16 10 14 11 -12 1 -60 67
-394 80 -409 5 -4 13 -6 18 -2 11 6 10 11 -42 256 -45 212 -57 292 -42 266 6
-10 21 -32 33 -50 13 -17 30 -46 39 -65 11 -25 18 -31 24 -21 6 9 13 4 26 -21
14 -29 18 -31 23 -15 6 16 8 15 19 -9 7 -15 17 -25 24 -23 12 4 79 -58 116
-107 l22 -30 -6 55 c-4 30 -8 60 -8 66 -1 7 -8 20 -16 30 -8 9 -14 19 -12 21
6 9 0 24 -23 51 -31 36 -7 39 26 3 15 -16 24 -20 29 -11 5 8 12 5 24 -11 12
-18 19 -21 25 -11 6 9 12 8 26 -8 22 -24 35 -26 35 -4 0 12 7 10 31 -10 34
-29 54 -34 45 -10 -6 17 6 12 37 -15 16 -13 19 -13 27 -1 8 13 13 12 40 -3 16
-10 35 -15 40 -12 6 4 18 1 27 -7 11 -9 17 -10 20 -2 4 11 87 -11 132 -36 35
-18 24 -6 -57 66 -42 38 -78 74 -79 79 -1 6 -10 15 -20 20 -10 6 -22 16 -26
23 -4 6 -13 12 -20 12 -7 0 -18 9 -25 20 -7 12 -23 20 -38 20 -14 0 -23 4 -19
10 3 5 -12 14 -33 19 -20 6 -46 17 -57 25 -11 9 -32 16 -47 16 -16 0 -28 5
-28 11 0 7 -10 9 -25 7 -14 -3 -25 -1 -25 4 0 6 -14 8 -34 4 -26 -5 -35 -3
-40 10 -9 23 -9 23 26 13 18 -5 44 -9 57 -9 20 0 22 2 10 16 -12 14 -7 15 46
9 57 -8 59 -7 45 10 -14 17 -12 18 33 11 36 -6 47 -4 47 6 0 10 13 12 48 9
l47 -3 -20 21 -19 22 54 -7 c47 -6 53 -5 47 9 -5 14 0 17 29 17 29 0 35 3 30
16 -5 14 -1 16 30 11 32 -5 36 -4 31 13 -4 16 1 19 37 22 22 2 39 7 38 12 -2
5 2 12 8 16 8 5 -8 28 -45 68 -58 63 -85 79 -107 65 -12 -7 -23 -9 -88 -16
-14 -1 -35 -8 -47 -14 -17 -10 -22 -10 -25 -1 -3 9 -12 8 -31 -5 -14 -9 -32
-14 -40 -11 -8 3 -20 -2 -27 -11 -7 -8 -20 -15 -30 -15 -9 0 -28 -8 -41 -19
-13 -10 -30 -16 -36 -14 -7 3 -26 -5 -41 -16 -16 -11 -32 -18 -36 -14 -3 4
-17 -3 -29 -15 -13 -12 -26 -20 -29 -17 -3 4 -16 -7 -28 -22 -12 -15 -23 -26
-25 -23 -2 3 -19 -9 -37 -26 -40 -38 -108 -79 -108 -66 0 5 19 27 42 48 24 21
42 43 41 49 -1 5 20 24 47 40 49 30 62 45 38 45 -7 0 6 12 30 26 28 16 41 31
38 40 -3 9 9 22 34 36 22 13 38 28 35 35 -2 7 9 22 26 34 19 13 28 27 25 36
-6 15 15 43 32 43 5 0 15 7 22 15 10 12 10 15 0 15 -18 0 17 38 42 46 15 4 17
9 9 17 -8 8 -5 17 11 34 l21 22 -38 43 c-142 159 -144 161 -151 133 -5 -20 -9
-23 -20 -14 -11 9 -16 6 -24 -16 -5 -14 -10 -33 -10 -42 0 -12 -3 -13 -13 -4
-19 15 -27 4 -27 -36 0 -27 -4 -33 -17 -31 -14 2 -19 -5 -21 -30 -2 -18 -8
-30 -13 -27 -11 7 -29 -36 -30 -73 0 -15 -3 -21 -6 -14 -8 20 -23 14 -23 -10
0 -39 -12 -68 -26 -68 -8 0 -15 -10 -15 -22 -1 -17 -2 -19 -6 -6 -2 10 5 30
16 44 25 31 26 44 6 44 -16 0 -13 15 13 68 13 24 14 35 5 40 -12 7 -11 36 2
80 6 16 3 22 -9 22 -15 0 -15 3 -2 23 24 39 29 67 11 67 -14 0 -14 2 1 25 15
24 11 51 -7 40 -10 -7 -1 51 13 78 7 13 5 17 -8 17 -11 0 -14 5 -10 16 16 43
19 67 6 59 -10 -6 -12 -2 -7 15 6 24 -11 46 -176 223 l-48 52 4 -37 c2 -30 0
-37 -13 -35 -11 1 -15 -7 -14 -37 1 -22 -4 -46 -12 -53 -10 -10 -11 -20 -3
-40 7 -19 6 -28 -2 -34 -8 -4 -9 -19 -5 -43 5 -24 3 -36 -4 -36 -13 0 -9 -67
4 -89 4 -6 0 -11 -10 -11 -13 0 -15 -6 -10 -36 4 -20 3 -41 -3 -48 -7 -8 -6
-20 4 -38 9 -19 10 -28 2 -31 -8 -2 -7 -14 3 -38 13 -31 18 -57 20 -114 1 -10
6 -26 13 -33 10 -13 8 -14 -11 -8 -28 9 -28 0 2 -69 20 -43 22 -55 10 -55 -16
0 -19 -31 -4 -46 6 -6 12 -21 15 -33 2 -13 11 -34 20 -47 13 -20 13 -24 1 -24
-7 0 -20 -7 -27 -17 -12 -14 -15 -10 -19 38 -4 39 -9 54 -20 54 -11 0 -15 12
-13 48 1 49 -4 56 -26 35 -10 -11 -11 -8 -6 15 5 17 3 27 -4 27 -6 0 -11 11
-11 25 0 25 -19 37 -21 13 0 -7 -5 -2 -10 11 -5 14 -8 34 -7 45 2 15 -2 20
-13 18 -13 -2 -18 9 -24 43 -4 29 -11 45 -18 42 -7 -2 -17 12 -23 32 -6 23
-16 36 -26 35 -11 -1 -20 12 -28 43 -9 38 -13 43 -25 33 -13 -11 -15 -7 -15
21 0 41 -14 67 -25 49 -8 -13 -35 31 -35 57 0 10 -6 12 -20 8 -16 -5 -20 -2
-20 15 0 31 -19 62 -34 57 -8 -3 -20 9 -30 30 -9 19 -22 33 -29 30 -6 -2 -18
10 -24 26 -9 19 -18 27 -28 23 -8 -3 -15 -1 -15 3 0 10 -34 53 -62 79 -10 9
-18 20 -18 25 0 11 -88 147 -95 147 -3 0 -2 -12 1 -27z m958 -1041 c-7 -15
-14 -39 -14 -54 0 -19 -5 -28 -16 -28 -14 0 -14 3 -3 16 10 13 10 17 0 23 -10
7 -8 16 10 44 27 41 45 40 23 -1z m-159 -157 c2 -11 8 -40 15 -64 15 -56 6
-64 -17 -15 -10 22 -21 41 -24 44 -4 3 -10 32 -14 65 l-7 60 23 -35 c12 -19
23 -44 24 -55z m-197 43 c-10 -8 -10 -11 0 -15 6 -2 12 -9 12 -14 0 -17 -19 1
-35 32 l-15 29 25 -12 c19 -9 22 -14 13 -20z m316 -31 c-6 -30 -42 -117 -49
-117 -2 0 1 18 6 40 5 22 8 43 7 47 -5 14 24 73 33 67 5 -2 6 -19 3 -37z
m-232 -36 c31 -28 32 -30 10 -28 -13 1 -33 14 -44 29 -26 37 -7 36 34 -1z m64
-73 l29 -31 -32 22 c-35 23 -50 41 -35 41 4 0 21 -14 38 -32z m-219 -44 c-3
-3 -12 -4 -19 -1 -8 3 -5 6 6 6 11 1 17 -2 13 -5z m63 -4 c0 -5 -9 -10 -19
-10 -11 0 -23 5 -26 10 -4 6 5 10 19 10 14 0 26 -4 26 -10z m80 -10 c11 -7 4
-10 -25 -9 -31 0 -36 2 -20 9 26 11 28 11 45 0z m177 -162 c-3 -8 -6 -5 -6 6
-1 11 2 17 5 13 3 -3 4 -12 1 -19z"/>
<path d="M2834 1676 c-3 -14 -4 -32 -1 -39 4 -12 134 -43 143 -34 8 8 -83 86
-108 92 -23 6 -28 3 -34 -19z"/>
<path d="M3006 1549 c-3 -8 -24 -106 -47 -219 -22 -113 -43 -207 -45 -209 -3
-3 -28 0 -57 6 -28 6 -53 10 -55 8 -2 -1 -5 -18 -8 -36 l-6 -34 119 -24 c65
-13 221 -45 346 -71 148 -30 230 -43 232 -36 15 52 15 66 -2 66 -10 0 -34 5
-54 10 -36 10 -37 11 -28 48 5 20 9 45 9 54 0 17 -46 78 -59 78 -4 0 -14 -32
-21 -70 -7 -39 -18 -74 -23 -77 -10 -6 -290 46 -308 58 -7 4 4 75 31 205 l41
198 -30 30 c-23 22 -31 26 -35 15z"/>
</g>
</svg>
